<svg width="251" height="21" viewBox="0 0 251 21" fill="none" xmlns="http://www.w3.org/2000/svg">
<path d="M17.7188 11C17.7188 6.18359 13.8164 2.28125 9 2.28125C4.18359 2.28125 0.28125 6.18359 0.28125 11C0.28125 15.3516 3.46957 18.9587 7.6377 19.6133V13.5204H5.42285V11H7.6377V9.07906C7.6377 6.8941 8.93848 5.68719 10.9308 5.68719C11.8849 5.68719 12.8827 5.85734 12.8827 5.85734V8.00187H11.783C10.7002 8.00187 10.3623 8.67406 10.3623 9.36348V11H12.7804L12.3936 13.5204H10.3623V19.6133C14.5304 18.9587 17.7188 15.3516 17.7188 11Z" fill="black"/>
<g clip-path="url(#clip0_1_223)">
<path d="M123 2C120.902 1.99867 118.869 2.73066 117.253 4.06941C115.637 5.40816 114.539 7.2695 114.15 9.33159C113.761 11.3937 114.105 13.5269 115.122 15.3624C116.139 17.1978 117.766 18.6202 119.721 19.3835C119.642 18.6714 119.57 17.5768 119.751 16.7994C119.915 16.0963 120.806 12.3253 120.806 12.3253C120.806 12.3253 120.537 11.7864 120.537 10.9899C120.537 9.73775 121.263 8.804 122.166 8.804C122.934 8.804 123.305 9.38 123.305 10.0719C123.305 10.8436 122.813 11.9979 122.559 13.0678C122.347 13.9633 123.009 14.6945 123.892 14.6945C125.492 14.6945 126.721 13.007 126.721 10.5725C126.721 8.41813 125.172 6.91175 122.962 6.91175C120.401 6.91175 118.898 8.83213 118.898 10.8166C118.898 11.5906 119.196 12.4198 119.568 12.8709C119.6 12.9049 119.622 12.9466 119.633 12.9919C119.644 13.0373 119.643 13.0847 119.631 13.1296C119.562 13.4131 119.41 14.0251 119.381 14.15C119.341 14.3143 119.25 14.3491 119.079 14.2704C117.954 13.7473 117.252 12.1036 117.252 10.7829C117.252 7.9445 119.316 5.33788 123.199 5.33788C126.321 5.33788 128.748 7.562 128.748 10.5354C128.748 13.637 126.791 16.1334 124.078 16.1334C123.165 16.1334 122.308 15.6598 122.014 15.0995L121.454 17.2393C121.251 18.0211 120.702 19.001 120.335 19.5984C121.572 19.981 122.878 20.092 124.162 19.9238C125.446 19.7556 126.679 19.3122 127.776 18.6238C128.874 17.9354 129.809 17.0183 130.52 15.9352C131.23 14.852 131.698 13.6283 131.892 12.3476C132.086 11.0669 132.001 9.7595 131.643 8.5146C131.286 7.2697 130.664 6.11667 129.819 5.13429C128.975 4.15191 127.929 3.36332 126.752 2.82239C125.575 2.28147 124.295 2.00095 123 2Z" fill="black"/>
</g>
<path d="M177.654 18.8748C184.447 18.8748 188.163 13.2464 188.163 8.37405C188.163 8.21655 188.163 8.0568 188.156 7.8993C188.88 7.3756 189.504 6.72722 190 5.98455C189.324 6.28251 188.608 6.47888 187.875 6.5673C188.647 6.10565 189.226 5.37927 189.503 4.52318C188.777 4.95307 187.983 5.25485 187.155 5.4153C186.598 4.82245 185.862 4.42971 185.059 4.29791C184.257 4.1661 183.433 4.30259 182.716 4.68623C181.999 5.06988 181.428 5.67926 181.093 6.42C180.757 7.16073 180.675 7.99148 180.859 8.78355C179.391 8.70992 177.954 8.32845 176.643 7.66389C175.331 6.99932 174.174 6.0665 173.247 4.92593C172.776 5.7394 172.632 6.70163 172.844 7.61723C173.057 8.53283 173.61 9.33315 174.392 9.85568C173.806 9.83578 173.234 9.67856 172.72 9.39668V9.4473C172.721 10.2995 173.016 11.1252 173.556 11.7848C174.095 12.4444 174.846 12.8975 175.681 13.0676C175.364 13.1549 175.037 13.1984 174.708 13.1969C174.476 13.1976 174.245 13.1762 174.017 13.1328C174.253 13.8664 174.713 14.5077 175.331 14.9671C175.95 15.4264 176.697 15.6808 177.468 15.6944C176.159 16.7225 174.542 17.28 172.877 17.2773C172.584 17.2785 172.291 17.2616 172 17.2267C173.689 18.3036 175.651 18.8754 177.654 18.8748Z" fill="black"/>
<g clip-path="url(#clip1_1_223)">
<path d="M66.0036 6.95684C63.7321 6.95684 61.9 8.76035 61.9 10.9963C61.9 13.2322 63.7321 15.0357 66.0036 15.0357C68.275 15.0357 70.1071 13.2322 70.1071 10.9963C70.1071 8.76035 68.275 6.95684 66.0036 6.95684ZM66.0036 13.6225C64.5357 13.6225 63.3357 12.4447 63.3357 10.9963C63.3357 9.54785 64.5321 8.37012 66.0036 8.37012C67.475 8.37012 68.6714 9.54785 68.6714 10.9963C68.6714 12.4447 67.4714 13.6225 66.0036 13.6225ZM71.2321 6.7916C71.2321 7.31543 70.8036 7.73379 70.275 7.73379C69.7429 7.73379 69.3179 7.31191 69.3179 6.7916C69.3179 6.27129 69.7464 5.84941 70.275 5.84941C70.8036 5.84941 71.2321 6.27129 71.2321 6.7916ZM73.95 7.74785C73.8893 6.48574 73.5964 5.36777 72.6571 4.44668C71.7214 3.52559 70.5857 3.2373 69.3036 3.17402C67.9821 3.1002 64.0214 3.1002 62.7 3.17402C61.4214 3.23379 60.2857 3.52207 59.3464 4.44316C58.4071 5.36426 58.1179 6.48223 58.0536 7.74434C57.9786 9.04512 57.9786 12.9439 58.0536 14.2447C58.1143 15.5068 58.4071 16.6248 59.3464 17.5459C60.2857 18.467 61.4179 18.7553 62.7 18.8186C64.0214 18.8924 67.9821 18.8924 69.3036 18.8186C70.5857 18.7588 71.7214 18.4705 72.6571 17.5459C73.5928 16.6248 73.8857 15.5068 73.95 14.2447C74.025 12.9439 74.025 9.04863 73.95 7.74785ZM72.2428 15.6404C71.9643 16.3295 71.425 16.8604 70.7214 17.1381C69.6679 17.5494 67.1678 17.4545 66.0036 17.4545C64.8393 17.4545 62.3357 17.5459 61.2857 17.1381C60.5857 16.8639 60.0464 16.333 59.7643 15.6404C59.3464 14.6033 59.4429 12.1424 59.4429 10.9963C59.4429 9.8502 59.35 7.38574 59.7643 6.35215C60.0429 5.66309 60.5821 5.13223 61.2857 4.85449C62.3393 4.44316 64.8393 4.53809 66.0036 4.53809C67.1678 4.53809 69.6714 4.44668 70.7214 4.85449C71.4214 5.12871 71.9607 5.65957 72.2428 6.35215C72.6607 7.38926 72.5643 9.8502 72.5643 10.9963C72.5643 12.1424 72.6607 14.6068 72.2428 15.6404Z" fill="black"/>
</g>
<defs>
<clipPath id="clip0_1_223">
<rect width="18" height="18" fill="white" transform="translate(114 2)"/>
</clipPath>
<clipPath id="clip1_1_223">
<rect width="16" height="18" fill="white" transform="translate(58 2)"/>
</clipPath>
</defs>
</svg>
